<?xml version="1.0" encoding="UTF-8" standalone="no"?>
<!-- Created with Inkscape (http://www.inkscape.org/) -->

<svg
   xmlns:dc="http://purl.org/dc/elements/1.1/"
   xmlns:cc="http://creativecommons.org/ns#"
   xmlns:rdf="http://www.w3.org/1999/02/22-rdf-syntax-ns#"
   xmlns:svg="http://www.w3.org/2000/svg"
   xmlns="http://www.w3.org/2000/svg"
   xmlns:sodipodi="http://sodipodi.sourceforge.net/DTD/sodipodi-0.dtd"
   xmlns:inkscape="http://www.inkscape.org/namespaces/inkscape"
   width="16"
   height="16"
   id="svg13094"
   version="1.1"
   inkscape:version="0.48.3.1 r9886"
   sodipodi:docname="object-visible.svg">
  <sodipodi:namedview
     id="base"
     pagecolor="#ffffff"
     bordercolor="#666666"
     borderopacity="1.0"
     inkscape:pageopacity="0.0"
     inkscape:pageshadow="2"
     inkscape:zoom="22.627417"
     inkscape:cx="20.941665"
     inkscape:cy="4.9976728"
     inkscape:document-units="px"
     inkscape:current-layer="layer1"
     showgrid="true"
     inkscape:snap-bbox="true"
     inkscape:bbox-paths="true"
     inkscape:bbox-nodes="true"
     inkscape:snap-bbox-edge-midpoints="true"
     inkscape:snap-bbox-midpoints="true"
     inkscape:object-paths="true"
     inkscape:snap-intersection-paths="true"
     inkscape:object-nodes="true"
     inkscape:snap-smooth-nodes="true"
     inkscape:snap-midpoints="true"
     inkscape:snap-object-midpoints="true"
     inkscape:snap-center="true"
     showguides="false"
     inkscape:guide-bbox="true"
     inkscape:window-width="1920"
     inkscape:window-height="1033"
     inkscape:window-x="-10"
     inkscape:window-y="25"
     inkscape:window-maximized="1"
     inkscape:snap-global="true"
     fit-margin-top="0"
     fit-margin-left="0"
     fit-margin-right="0"
     fit-margin-bottom="0"
     showborder="true"
     inkscape:showpageshadow="false">
    <sodipodi:guide
       orientation="0,1"
       position="-20.000165,933.61275"
       id="guide4700" />
    <sodipodi:guide
       orientation="0,1"
       position="581.7187,331.89377"
       id="guide4702" />
    <sodipodi:guide
       orientation="1,0"
       position="581.71882,492.70384"
       id="guide4706" />
    <sodipodi:guide
       orientation="1,0"
       position="59.999836,933.61275"
       id="guide4708" />
    <sodipodi:guide
       orientation="0,1"
       position="-20.000165,853.61285"
       id="guide4710" />
    <sodipodi:guide
       orientation="0,1"
       position="541.7187,411.89369"
       id="guide4712" />
    <sodipodi:guide
       orientation="1,0"
       position="501.7187,411.89369"
       id="guide4714" />
    <inkscape:grid
       type="xygrid"
       id="grid3216"
       empspacing="5"
       visible="true"
       enabled="true"
       snapvisiblegridlinesonly="true"
       originx="-20.000111px"
       originy="-216.00016px" />
    <sodipodi:guide
       orientation="-0.70710664,0.70710692"
       position="8.9998902,-243.00016"
       id="guide3847" />
    <sodipodi:guide
       orientation="0.70710594,0.70710762"
       position="9.9998902,-242.00016"
       id="guide3849" />
    <sodipodi:guide
       orientation="-0.70710681,0.70710676"
       position="11.99989,-209.00016"
       id="guide3851" />
  </sodipodi:namedview>
  <defs
     id="defs13096" />
  <metadata
     id="metadata13099">
    <rdf:RDF>
      <cc:Work
         rdf:about="">
        <dc:format>image/svg+xml</dc:format>
        <dc:type
           rdf:resource="http://purl.org/dc/dcmitype/StillImage" />
        <dc:title />
      </cc:Work>
    </rdf:RDF>
  </metadata>
  <g
     transform="translate(9384.3076,-4846.1987)"
     id="layer1"
     inkscape:groupmode="layer"
     inkscape:label="Camada 1">
    <path
       sodipodi:nodetypes="scscscscscscscsscsscssssss"
       id="path4646"
       d="m -9358.4014,4861.4176 c -4.7999,0 -7.9999,6.7498 -7.9999,6.7498 0,0 3.2,-3.75 7.9999,-3.75 4.7999,0 8,3.75 8,3.75 0,0 -3.2001,-6.7498 -8,-6.7498 z m 8,6.7498 c 0,0 -3.2001,3.2499 -8,3.2499 -4.7999,0 -7.9999,-3.2499 -7.9999,-3.2499 0,0 3.2,5.2498 7.9999,5.2498 4.7999,0 8,-5.2498 8,-5.2498 z m -8,-2.75 c -1.5611,0 -2.8716,0.3218 -3.9249,0.75 -0.054,0.2441 -0.075,0.4912 -0.075,0.75 0,1.218 0.6404,2.2915 1.6,2.9765 0.014,-0.403 0.3668,-0.7265 0.8,-0.7265 0.4418,0 0.8,0.3357 0.8,0.75 0,0.2367 -0.1172,0.4485 -0.3,0.5859 0.3536,0.096 0.7134,-0.086 1.0999,-0.086 2.2091,0 4,-1.429 4,-3.5 0,-0.2588 -0.022,-0.5059 -0.075,-0.75 -1.0534,-0.4282 -2.3639,-0.75 -3.925,-0.75 z m 1.2001,0.375 c 0.6627,0 1.2,0.5037 1.2,1.125 0,0.6213 -0.5373,1.125 -1.2,1.125 -0.6628,0 -1.2001,-0.5037 -1.2001,-1.125 0,-0.6213 0.5373,-1.125 1.2001,-1.125 z"
       style="fill:#434a54;fill-opacity:0.6745098;fill-rule:nonzero;stroke:none;filter:url(#filter5848)"
       inkscape:connector-curvature="0" />
    <path
       sodipodi:nodetypes="scscscscscscccscsssssss"
       id="path4646-5"
       d="m -9359.1514,4848.1989 c -4.7999,0 -7.9999,6.7498 -7.9999,6.7498 0,0 3.2,-3.75 7.9999,-3.75 4.7999,0 8,3.75 8,3.75 0,0 -3.2001,-6.7498 -8,-6.7498 z m 8,6.7498 c 0,0 -3.2001,3.2499 -8,3.2499 -4.7999,0 -7.9999,-3.2499 -7.9999,-3.2499 0,0 3.2,5.2498 7.9999,5.2498 4.7999,0 8,-5.2498 8,-5.2498 z m -8,-2.75 c -1.5611,0 -2.8716,0.3218 -3.9249,0.75 -0.054,0.2441 -0.075,0.4912 -0.075,0.75 0,2.1323 1.8627,3.4999 3.9999,3.4999 2.2091,0 4,-1.429 4,-3.5 0,-0.2588 -0.022,-0.5059 -0.075,-0.75 -1.0534,-0.4282 -2.3639,-0.75 -3.925,-0.75 z m 1.4718,1.7902 c 0.4383,0 0.7937,0.3332 0.7937,0.7441 0,0.411 -0.3554,0.7442 -0.7937,0.7442 -0.4384,0 -0.7938,-0.3332 -0.7938,-0.7442 0,-0.4109 0.3554,-0.7441 0.7938,-0.7441 z"
       style="fill:#434a54;fill-opacity:0.6745098;fill-rule:nonzero;stroke:none;filter:url(#filter5848)"
       inkscape:connector-curvature="0" />
    <path
       style="fill:#434a55;stroke:none;fill-opacity:0.67450982"
       d="M 8 2 C 4.4951 2 1.6586 4.6484 0 8 L 2 8 C 2.7061 7.1762 3.45765 6.31225 4.28125 5.59375 C 4.11615 6.03225 4 6.5038 4 7 C 4 9.2092 5.7908 11 8 11 C 10.2092 11 12 9.2092 12 7 C 12 6.5038 11.88395 6.03225 11.71875 5.59375 C 12.54245 6.31225 13.2939 7.1762 14 8 L 16 8 C 14.3414 4.6484 11.5049 2 8 2 z M 16 8 C 14.3917 9.8764 10.6463 12 8 12 C 5.3537 12 1.6083 9.8764 0 8 C 1.6586 11.3515 4.4951 14 8 14 C 11.5049 14 14.3414 11.3515 16 8 z M 8 6 C 8.5523 6 9 6.4477 9 7 C 9 7.5523 8.5523 8 8 8 C 7.4477 8 7 7.5523 7 7 C 7 6.4477 7.4477 6 8 6 z "
       transform="translate(-9384.3076,4846.1987)"
       id="path3021" />
  </g>
</svg>
